<svg width="275" height="36" viewBox="0 0 275 36" fill="none" xmlns="http://www.w3.org/2000/svg">
<path fill-rule="evenodd" clip-rule="evenodd" d="M240.861 15.4839L239.147 18.0951C239.849 18.534 240.542 18.976 241.222 19.4184L245.254 14.7795C247.213 12.5259 250.721 12.5418 252.662 14.8109L258.962 22.1762C260.26 23.6936 262.383 24.229 264.244 23.5085L268.598 21.8233C267.808 21.1039 266.918 20.2362 265.971 19.2191C266.341 18.8478 266.474 18.278 266.265 17.7619C265.986 17.0721 265.2 16.7394 264.51 17.0188L264.16 17.1607C263.596 16.4826 263.022 15.755 262.445 14.9784C262.987 14.6372 263.224 13.9481 262.975 13.3341C262.696 12.6443 261.91 12.3116 261.22 12.591L260.869 12.7331C260.383 11.9988 259.899 11.2295 259.422 10.4225C259.912 10.0672 260.117 9.41317 259.88 8.82724C259.603 8.14328 258.821 7.80166 258.122 8.08548C257.511 6.92001 256.921 5.69033 256.362 4.39193C256.043 3.64975 255.145 3.35342 254.447 3.75973C254.407 3.78293 251.224 5.5607 246.143 3.4125C244.796 2.84329 243.316 1.99814 241.727 0.772C241.215 0.377224 240.494 0.401455 240.01 0.830288C239.879 0.946621 237.956 2.67654 236.09 5.74038L238.168 6.61862C241.638 8.08584 242.925 12.339 240.861 15.4839ZM258.122 8.08548L254.59 9.51626C253.901 9.79574 253.568 10.5815 253.847 11.2713C254.127 11.9608 254.912 12.294 255.602 12.0142C256.422 11.6822 257.057 11.4257 257.551 11.2262L257.575 11.2163L257.579 11.215C259.145 10.5822 259.268 10.5326 259.373 10.4581L259.401 10.438L259.422 10.4225C258.981 9.67526 258.547 8.89596 258.122 8.08548ZM260.869 12.7331L258.014 13.8898C257.324 14.1693 256.992 14.955 257.271 15.6448C257.55 16.3346 258.336 16.6674 259.026 16.3879C259.542 16.1786 259.978 16.0025 260.345 15.8539L260.387 15.8371L260.83 15.658C262.245 15.0855 262.332 15.0506 262.409 15.0016L262.445 14.9784C261.92 14.2715 261.393 13.5233 260.869 12.7331ZM264.16 17.1607L261.438 18.2635C260.748 18.543 260.415 19.3288 260.695 20.0186C260.974 20.7083 261.76 21.0411 262.45 20.7616L265.522 19.5169C265.696 19.4466 265.847 19.344 265.971 19.2191C265.386 18.591 264.779 17.9056 264.16 17.1607ZM232.693 14.3368C234.086 15.082 235.477 15.8736 236.846 16.6894L238.608 14.0048C239.752 12.2625 239.035 9.91153 237.118 9.10135L234.805 8.1235C234.075 9.66909 233.431 11.4384 233.012 13.4118L233.006 13.4428L233.001 13.4683L232.998 13.4928L232.994 13.517C232.992 13.5385 232.989 13.5601 232.988 13.5816C232.986 13.6037 232.985 13.6258 232.984 13.6478L232.693 14.3368ZM4.16943 24.9341H10.0142L15.4146 35H18.9351V34.7949L13.0903 24.2334C14.5829 23.6638 15.745 22.8036 16.5767 21.6529C17.4198 20.5022 17.8413 19.1521 17.8413 17.6026C17.8413 15.1644 17.0836 13.3073 15.5684 12.0313C14.0645 10.7552 11.9111 10.1172 9.1084 10.1172H0.871094V35H4.16943V24.9341ZM9.21094 22.251H4.16943V12.8174H9.19385C10.9257 12.8288 12.2472 13.2447 13.1587 14.065C14.0815 14.8853 14.543 16.0645 14.543 17.6026C14.543 19.0153 14.0587 20.1433 13.0903 20.9864C12.1333 21.8294 10.8402 22.251 9.21094 22.251ZM25.7368 23.4986H36.5205V20.8155H25.7368V12.8174H38.0928V10.1172H22.4556V35H38.2637V32.3169H25.7368V23.4986ZM42.3481 10.1172V35H49.2354C51.4684 34.9773 53.4224 34.493 55.0972 33.5474C56.7833 32.6018 58.0765 31.2459 58.9766 29.48C59.8881 27.7141 60.3438 25.6576 60.3438 23.3106V21.7212C60.3324 19.4312 59.871 17.4032 58.9595 15.6372C58.0594 13.8713 56.7777 12.5098 55.1143 11.5528C53.4508 10.5957 51.5367 10.1172 49.3721 10.1172H42.3481ZM45.6294 32.3169V12.8174H49.4575C51.8956 12.8402 53.7755 13.6377 55.0972 15.21C56.4302 16.7708 57.0967 18.9641 57.0967 21.7896V23.2422C57.0967 26.1475 56.3903 28.3863 54.9775 29.9585C53.5762 31.5308 51.6108 32.3169 49.0815 32.3169H45.6294ZM82.834 27.0362V10.1172H79.5356V26.9849C79.5356 28.785 79.04 30.1807 78.0488 31.1719C77.069 32.1631 75.6505 32.6587 73.7935 32.6587C71.9591 32.6587 70.5464 32.1631 69.5552 31.1719C68.564 30.1693 68.0684 28.7679 68.0684 26.9678V10.1172H64.8213V27.0703C64.8441 29.6452 65.6644 31.6675 67.2822 33.1372C68.9 34.607 71.0704 35.3418 73.7935 35.3418L74.665 35.3076C77.1715 35.1253 79.1539 34.2879 80.6123 32.7954C82.082 31.3029 82.8226 29.3831 82.834 27.0362ZM102.094 10.1172L96.1299 19.6533L90.1313 10.1172H86.2861L94.1646 22.4561L86.0981 35H89.9775L96.1299 25.293L102.248 35H106.145L98.0952 22.4561L105.957 10.1172H102.094ZM111.135 20.9351C112.422 22.1086 114.473 23.0998 117.287 23.9087C119.532 24.5581 121.081 25.219 121.936 25.8911C122.79 26.552 123.217 27.4919 123.217 28.711C123.217 29.93 122.756 30.8928 121.833 31.5991C120.91 32.3055 119.583 32.6587 117.851 32.6587C115.994 32.6587 114.507 32.2258 113.391 31.3599C112.286 30.4826 111.733 29.292 111.733 27.7881H108.435C108.435 29.2351 108.833 30.5282 109.631 31.6675C110.44 32.8069 111.585 33.7069 113.066 34.3677C114.547 35.0171 116.142 35.3418 117.851 35.3418C120.483 35.3418 122.585 34.738 124.157 33.5303C125.729 32.3112 126.516 30.6934 126.516 28.6768C126.516 27.4121 126.231 26.3127 125.661 25.3784C125.103 24.4442 124.237 23.6296 123.063 22.9346C121.901 22.2282 120.284 21.5845 118.21 21.0034C116.148 20.4224 114.684 19.7844 113.818 19.0894C112.963 18.383 112.536 17.5228 112.536 16.5088C112.536 15.2442 112.986 14.2586 113.886 13.5523C114.798 12.8345 116.062 12.4756 117.68 12.4756C119.423 12.4756 120.773 12.9085 121.73 13.7744C122.688 14.6289 123.166 15.8081 123.166 17.312H126.464C126.464 15.9334 126.094 14.6631 125.354 13.501C124.624 12.3389 123.588 11.4275 122.243 10.7666C120.91 10.1058 119.389 9.77542 117.68 9.77542C115.174 9.77542 113.134 10.4192 111.562 11.7066C110.001 12.9826 109.221 14.6004 109.221 16.5601C109.221 18.2918 109.859 19.7502 111.135 20.9351ZM146.562 35H149.86V10.1172H146.562V20.8155H134.018V10.1172H130.737V35H134.018V23.4986H146.562V35ZM173.598 29.7534C174.418 27.9305 174.829 25.8 174.829 23.3618V21.7896C174.829 19.3628 174.418 17.238 173.598 15.4151C172.778 13.5808 171.604 12.1851 170.078 11.2281C168.562 10.2596 166.808 9.77542 164.814 9.77542C162.854 9.77542 161.111 10.2653 159.584 11.2451C158.069 12.2136 156.896 13.615 156.064 15.4492C155.232 17.2835 154.816 19.397 154.816 21.7896V23.584C154.839 25.931 155.266 27.9989 156.098 29.7876C156.941 31.565 158.12 32.9378 159.636 33.9063C161.151 34.8633 162.889 35.3418 164.848 35.3418C166.853 35.3418 168.608 34.8633 170.112 33.9063C171.616 32.9492 172.778 31.565 173.598 29.7534ZM169.787 14.9707C170.972 16.543 171.564 18.8045 171.564 21.7554V23.6011C171.53 26.4836 170.932 28.6996 169.77 30.2491C168.608 31.7871 166.967 32.5562 164.848 32.5562C162.74 32.5562 161.083 31.7415 159.875 30.1123C158.679 28.4717 158.081 26.2215 158.081 23.3618V21.5332C158.115 18.7305 158.724 16.543 159.909 14.9707C161.105 13.3871 162.74 12.5952 164.814 12.5952C166.944 12.5952 168.602 13.3871 169.787 14.9707ZM183.032 23.4986H193.815V20.8155H183.032V12.8174H195.388V10.1172H179.75V35H195.559V32.3169H183.032V23.4986ZM200.822 20.9351C202.11 22.1086 204.161 23.0998 206.975 23.9087C209.219 24.5581 210.769 25.219 211.623 25.8911C212.478 26.552 212.905 27.4919 212.905 28.711C212.905 29.93 212.443 30.8928 211.521 31.5991C210.598 32.3055 209.27 32.6587 207.539 32.6587C205.682 32.6587 204.195 32.2258 203.078 31.3599C201.973 30.4826 201.42 29.292 201.42 27.7881H198.122C198.122 29.2351 198.521 30.5282 199.318 31.6675C200.127 32.8069 201.272 33.7069 202.753 34.3677C204.234 35.0171 205.83 35.3418 207.539 35.3418C210.17 35.3418 212.272 34.738 213.845 33.5303C215.417 32.3112 216.203 30.6934 216.203 28.6768C216.203 27.4121 215.918 26.3127 215.349 25.3784C214.79 24.4442 213.924 23.6296 212.751 22.9346C211.589 22.2282 209.971 21.5845 207.897 21.0034C205.835 20.4224 204.371 19.7844 203.505 19.0894C202.651 18.383 202.224 17.5228 202.224 16.5088C202.224 15.2442 202.674 14.2586 203.574 13.5523C204.485 12.8345 205.75 12.4756 207.368 12.4756C209.111 12.4756 210.461 12.9085 211.418 13.7744C212.375 14.6289 212.854 15.8081 212.854 17.312H216.152C216.152 15.9334 215.782 14.6631 215.041 13.501C214.312 12.3389 213.275 11.4275 211.931 10.7666C210.598 10.1058 209.077 9.77542 207.368 9.77542C204.861 9.77542 202.822 10.4192 201.25 11.7066C199.689 12.9826 198.908 14.6004 198.908 16.5601C198.908 18.2918 199.546 19.7502 200.822 20.9351ZM231.79 19.9334C231.104 19.6435 230.784 18.8526 231.073 18.1674L231.638 16.831C236.603 19.5044 241.541 22.7769 245.516 25.6074C245.331 25.612 245.142 25.5781 244.961 25.5014L231.79 19.9334ZM274.367 31.9326L273.556 34.5226C273.367 35.1286 272.78 35.5199 272.147 35.4621C271.958 35.4447 267.391 34.9836 256.144 30.2291C256.024 30.1781 255.911 30.1096 255.81 30.0263C255.749 29.976 252.284 27.1219 247.256 23.5336L247.256 23.5345C246.078 22.6945 244.814 21.814 243.489 20.9195L247.288 16.5476C248.165 15.5388 249.74 15.5421 250.614 16.5631L256.914 23.9284C258.954 26.3133 262.291 27.1548 265.217 26.0222L270.952 23.8022C271.116 23.9271 271.262 24.0362 271.389 24.1295C271.517 24.223 271.626 24.3008 271.715 24.363C274.14 26.0617 275.231 29.1745 274.367 31.9326Z" fill="white"/>
</svg>
